<mxfile host="app.diagrams.net" modified="2024-08-02T02:48:48.619Z" agent="Mozilla/5.0 (Macintosh; Intel Mac OS X 10_15_7) AppleWebKit/537.36 (KHTML, like Gecko) Chrome/126.0.0.0 Safari/537.36" etag="n4YYpJFV2SH8spxJXFDf" version="24.7.0" type="github">
  <diagram name="第 1 页" id="_o-NHqm5kNj5wMjtTiSq">
    <mxGraphModel dx="1375" dy="738" grid="1" gridSize="10" guides="1" tooltips="1" connect="1" arrows="1" fold="1" page="1" pageScale="1" pageWidth="827" pageHeight="1169" math="0" shadow="0">
      <root>
        <mxCell id="0" />
        <mxCell id="1" parent="0" />
        <mxCell id="jPnBOiImL2e6noczrev8-19" style="edgeStyle=orthogonalEdgeStyle;rounded=0;orthogonalLoop=1;jettySize=auto;html=1;entryX=0.5;entryY=0;entryDx=0;entryDy=0;" edge="1" parent="1" target="jPnBOiImL2e6noczrev8-11">
          <mxGeometry relative="1" as="geometry">
            <mxPoint x="170" y="300" as="sourcePoint" />
            <Array as="points">
              <mxPoint x="171" y="300" />
              <mxPoint x="170" y="300" />
            </Array>
          </mxGeometry>
        </mxCell>
        <mxCell id="jPnBOiImL2e6noczrev8-2" value="" style="rounded=0;whiteSpace=wrap;html=1;fillColor=none;dashed=1;" vertex="1" parent="1">
          <mxGeometry x="120" y="210" width="330" height="90" as="geometry" />
        </mxCell>
        <mxCell id="jPnBOiImL2e6noczrev8-1" value="查方案" style="rounded=0;whiteSpace=wrap;html=1;fillColor=none;" vertex="1" parent="1">
          <mxGeometry x="160" y="230" width="100" height="50" as="geometry" />
        </mxCell>
        <mxCell id="jPnBOiImL2e6noczrev8-3" value="计费" style="rounded=0;whiteSpace=wrap;html=1;fillColor=none;" vertex="1" parent="1">
          <mxGeometry x="314" y="230" width="100" height="50" as="geometry" />
        </mxCell>
        <mxCell id="jPnBOiImL2e6noczrev8-14" style="edgeStyle=orthogonalEdgeStyle;rounded=0;orthogonalLoop=1;jettySize=auto;html=1;exitX=0.31;exitY=0.8;exitDx=0;exitDy=0;exitPerimeter=0;entryX=0.25;entryY=0;entryDx=0;entryDy=0;" edge="1" parent="1" source="jPnBOiImL2e6noczrev8-5" target="jPnBOiImL2e6noczrev8-2">
          <mxGeometry relative="1" as="geometry" />
        </mxCell>
        <mxCell id="jPnBOiImL2e6noczrev8-5" value="参数" style="ellipse;shape=cloud;whiteSpace=wrap;html=1;" vertex="1" parent="1">
          <mxGeometry x="225" y="80" width="120" height="80" as="geometry" />
        </mxCell>
        <mxCell id="jPnBOiImL2e6noczrev8-11" value="计费结果" style="rounded=0;whiteSpace=wrap;html=1;fillColor=none;" vertex="1" parent="1">
          <mxGeometry x="120" y="360" width="100" height="50" as="geometry" />
        </mxCell>
        <mxCell id="jPnBOiImL2e6noczrev8-12" value="计费结果" style="rounded=0;whiteSpace=wrap;html=1;fillColor=none;" vertex="1" parent="1">
          <mxGeometry x="350" y="360" width="100" height="50" as="geometry" />
        </mxCell>
        <mxCell id="jPnBOiImL2e6noczrev8-17" style="edgeStyle=orthogonalEdgeStyle;rounded=0;orthogonalLoop=1;jettySize=auto;html=1;exitX=0.8;exitY=0.8;exitDx=0;exitDy=0;exitPerimeter=0;entryX=0.827;entryY=-0.044;entryDx=0;entryDy=0;entryPerimeter=0;" edge="1" parent="1" source="jPnBOiImL2e6noczrev8-5" target="jPnBOiImL2e6noczrev8-2">
          <mxGeometry relative="1" as="geometry" />
        </mxCell>
        <mxCell id="jPnBOiImL2e6noczrev8-20" style="edgeStyle=orthogonalEdgeStyle;rounded=0;orthogonalLoop=1;jettySize=auto;html=1;entryX=0.5;entryY=0;entryDx=0;entryDy=0;" edge="1" parent="1">
          <mxGeometry relative="1" as="geometry">
            <mxPoint x="399.5" y="300" as="sourcePoint" />
            <mxPoint x="399.5" y="360" as="targetPoint" />
            <Array as="points">
              <mxPoint x="400.5" y="300" />
              <mxPoint x="399.5" y="300" />
            </Array>
          </mxGeometry>
        </mxCell>
        <mxCell id="jPnBOiImL2e6noczrev8-21" value="" style="shape=doubleArrow;whiteSpace=wrap;html=1;dashed=1;" vertex="1" parent="1">
          <mxGeometry x="235" y="360" width="100" height="60" as="geometry" />
        </mxCell>
        <mxCell id="jPnBOiImL2e6noczrev8-25" value="是否一致" style="text;html=1;align=center;verticalAlign=middle;whiteSpace=wrap;rounded=0;" vertex="1" parent="1">
          <mxGeometry x="255" y="350" width="60" height="30" as="geometry" />
        </mxCell>
        <mxCell id="jPnBOiImL2e6noczrev8-26" value="" style="rounded=0;whiteSpace=wrap;html=1;fillColor=none;dashed=1;" vertex="1" parent="1">
          <mxGeometry x="70" y="50" width="440" height="440" as="geometry" />
        </mxCell>
        <mxCell id="jPnBOiImL2e6noczrev8-27" value="&lt;font style=&quot;font-size: 19px;&quot;&gt;信保&lt;/font&gt;" style="text;html=1;align=center;verticalAlign=middle;whiteSpace=wrap;rounded=0;" vertex="1" parent="1">
          <mxGeometry x="240" y="10" width="60" height="30" as="geometry" />
        </mxCell>
      </root>
    </mxGraphModel>
  </diagram>
</mxfile>
